<?xml version="1.0" encoding="UTF-8"?>
<svg version="1.1" viewBox="0 0 2160 1080" xmlns="http://www.w3.org/2000/svg">
  <style>@keyframes stroke {
			0% {
				stroke-dashoffset: 700;
			}
			20% {
				stroke-dashoffset: 700;
			}
			100% {
				stroke-dashoffset: 0;
			}
		}
		#logo {
			animation: stroke 3s infinite alternate;
		}
		@media (prefers-color-scheme: dark) {
			#logo {
				stroke: #efefef;
			}
      #bg {
        fill: #424242;
      }
		}
		@media (prefers-color-scheme: light) {
			#logo {
				stroke: #424242;
			}
      #bg {
        fill: #efefef;
      }
		}</style>
  <rect id="bg" width="100%" height="100%" />
  <g id="logo" transform="matrix(1.5 0 0 1.5 518.54 -21.724)" fill="none" stroke-dasharray="700">
    <path d="m311.76 57.207 70.882 10.16-41.144-42.885z"/>
    <path d="m304.82 131.07 77.822-63.699-70.882-10.16z"/>
    <path d="m402.8 236.73 61.233-16.422-81.385-152.95z"/>
    <path d="m317.32 201.07 65.324-133.7-77.822 63.699z"/>
    <path d="m317.32 201.07 85.476 35.668-20.152-169.37z"/>
    <path d="m402.8 236.73 50.547 74.766 10.686-91.188z"/>
    <path d="m317.32 201.07 39.711 115.08 45.765-79.412z"/>
    <path d="m270.39 341.1 46.928-140.03-110.77 42.199z"/>
    <path d="m453.34 311.5 110.83 5.74-100.14-96.928z"/>
    <path d="m357.03 316.15 96.312-4.646-50.547-74.766z"/>
    <path d="m270.39 341.1 86.639-24.949-39.711-115.08z"/>
    <path d="m501.67 373.2 62.506-55.959-110.83-5.74z"/>
    <path d="m141.53 306.77 128.87 34.322-63.843-97.83z"/>
    <path d="m141.53 306.77 71.756 83.149 57.112-48.827z"/>
    <path d="m107.37 407.5 105.91-17.581-71.756-83.149z"/>
    <path d="m270.39 341.1 90.091 95.183-3.452-120.13z"/>
    <path d="m360.48 436.28 92.86-124.78-96.312 4.646z"/>
    <path d="m360.48 436.28 141.18-63.079-48.323-61.699z"/>
    <path d="m267.59 468.61 2.8-127.52-57.112 48.827z"/>
    <path d="m267.59 468.61 92.891-32.334-90.091-95.183z"/>
    <path d="m554.31 475.06 9.868-157.82-62.506 55.959z"/>
    <path d="m63.686 473.78 36.537 6.255 7.1464-72.536z"/>
    <path d="m554.31 475.06 104.11-28.086-94.243-129.73z"/>
    <path d="m76.668 499.89 23.555-19.851-36.537-6.255z"/>
    <path d="m100.22 480.04 113.06-90.117-105.91 17.581z"/>
    <path d="m438.41 525.54 63.26-152.34-141.18 63.079z"/>
    <path d="m438.41 525.54 115.9-50.488-52.638-101.86z"/>
    <path d="m84.528 508.77 45.098 40.583-29.403-69.316z"/>
    <path d="m308.32 548.19 52.169-111.91-92.891 32.334z"/>
    <path d="m308.32 548.19 26.471 3.562 25.698-115.48z"/>
    <path d="m100.22 480.04 167.37-11.427-54.312-78.69z"/>
    <path d="m149.38 555.92-49.152-75.88 29.403 69.316z"/>
    <path d="m149.38 555.92 118.22-87.307-167.37 11.427z"/>
    <path d="m334.79 551.75 103.62-26.209-77.923-89.266z"/>
    <path d="m149.38 555.92 79.861 14.375 38.357-101.68z"/>
    <path d="m229.24 570.29 79.079-22.103-40.722-79.579z"/>
    <path d="m348.56 569.11 89.845-43.565-103.62 26.209z"/>
    <path d="m173.85 578.79 55.387-8.495-79.861-14.375z"/>
    <path d="m554.31 475.06 130.62 71.013-26.508-99.099z"/>
    <path d="m438.41 525.54 75.667 65.122 40.231-115.61z"/>
    <path d="m514.07 590.67 170.85-44.597-130.62-71.013z"/>
    <path d="m355.54 623.34 82.867-97.794-89.845 43.565z"/>
    <path d="m355.54 623.34 158.53-32.672-75.667-65.122z"/>
    <path d="m355.28 724.48 158.79-133.82-158.53 32.672z"/>
  </g>
</svg>
