<?xml version="1.0" encoding="UTF-8"?>
<svg version="1.1" viewBox="0 0 750 750" xmlns="http://www.w3.org/2000/svg">
  <style>@keyframes stroke {
			0% {
				stroke-dashoffset: 700;
			}
			20% {
				stroke-dashoffset: 700;
			}
			100% {
				stroke-dashoffset: 0;
			}
		}
		#logo {
			animation: 3s infinite alternate stroke;
		}
		@media (prefers-color-scheme: dark) {
			#logo {
        stroke: #efefef;
        fill: none;
			}
      #bg {
        fill: #424242;
      }
		}
		@media (prefers-color-scheme: light) {
			#logo {
        stroke: #424242;
        fill: none;
			}
      #bg {
        fill: #efefef;
      }
		}</style>
  <ellipse id="bg" cx="375.57" cy="375.15" rx="373.32" ry="374.43" />
  <g transform="translate(24.305 24.483)">
    <g id="logo" stroke-dasharray="700" stroke-width="3">
      <path d="m287.46 32.725 70.882 10.16-41.144-42.885z"/>
      <path d="m280.52 106.58 77.822-63.698-70.882-10.16z"/>
      <path d="m378.49 212.25 61.233-16.422-81.385-152.95z"/>
      <path d="m293.02 176.58 65.324-133.7-77.822 63.698z"/>
      <path d="m293.02 176.58 85.476 35.668-20.152-169.37z"/>
      <path d="m378.49 212.25 50.547 74.766 10.686-91.188z"/>
      <path d="m293.02 176.58 39.711 115.08 45.765-79.412z"/>
      <path d="m246.09 316.61 46.928-140.03-110.77 42.199z"/>
      <path d="m429.04 287.02 110.83 5.74-100.14-96.928z"/>
      <path d="m332.73 291.66 96.312-4.646-50.547-74.766z"/>
      <path d="m246.09 316.61 86.639-24.949-39.711-115.08z"/>
      <path d="m477.36 348.72 62.506-55.959-110.83-5.74z"/>
      <path d="m117.22 282.29 128.87 34.322-63.843-97.83z"/>
      <path d="m117.22 282.29 71.756 83.149 57.112-48.827z"/>
      <path d="m83.065 383.02 105.91-17.581-71.756-83.149z"/>
      <path d="m246.09 316.61 90.091 95.183-3.452-120.13z"/>
      <path d="m336.18 411.8 92.86-124.78-96.312 4.646z"/>
      <path d="m336.18 411.8 141.18-63.079-48.323-61.699z"/>
      <path d="m243.29 444.13 2.8-127.52-57.112 48.827z"/>
      <path d="m243.29 444.13 92.891-32.334-90.091-95.183z"/>
      <path d="m530 450.57 9.868-157.82-62.506 55.959z"/>
      <path d="m39.381 449.3 36.537 6.255 7.1464-72.536z"/>
      <path d="m530 450.57 104.11-28.086-94.243-129.73z"/>
      <path d="m52.363 475.41 23.555-19.851-36.537-6.255z"/>
      <path d="m75.918 455.56 113.06-90.117-105.91 17.581z"/>
      <path d="m414.1 501.06 63.26-152.34-141.18 63.079z"/>
      <path d="m414.1 501.06 115.9-50.488-52.638-101.86z"/>
      <path d="m60.223 484.29 45.098 40.583-29.403-69.316z"/>
      <path d="m284.01 523.71 52.169-111.91-92.891 32.334z"/>
      <path d="m284.01 523.71 26.471 3.562 25.698-115.48z"/>
      <path d="m75.918 455.56 167.37-11.427-54.312-78.69z"/>
      <path d="m125.07 531.44-49.152-75.88 29.403 69.316z"/>
      <path d="m125.07 531.44 118.22-87.307-167.37 11.427z"/>
      <path d="m310.48 527.27 103.62-26.209-77.923-89.266z"/>
      <path d="m125.07 531.44 79.861 14.375 38.357-101.68z"/>
      <path d="m204.93 545.81 79.079-22.103-40.722-79.579z"/>
      <path d="m324.26 544.63 89.845-43.565-103.62 26.209z"/>
      <path d="m149.54 554.31 55.387-8.495-79.861-14.375z"/>
      <path d="m530 450.57 130.62 71.013-26.508-99.099z"/>
      <path d="m414.1 501.06 75.667 65.122 40.231-115.61z"/>
      <path d="m489.77 566.18 170.85-44.597-130.62-71.013z"/>
      <path d="m331.24 598.86 82.867-97.794-89.845 43.565z"/>
      <path d="m331.24 598.86 158.53-32.672-75.667-65.122z"/>
      <path d="m330.98 700 158.79-133.82-158.53 32.672z"/>
    </g>
  </g>
</svg>
